<svg xmlns="http://www.w3.org/2000/svg" width="1200" height="675" viewBox="0 0 1200 675">
  <defs>
    <linearGradient id="bg" x1="0" y1="0" x2="1" y2="1">
      <stop offset="0" stop-color="#f7f2e8"/>
      <stop offset="1" stop-color="#efe6d7"/>
    </linearGradient>
    <linearGradient id="ink" x1="0" y1="0" x2="1" y2="0">
      <stop offset="0" stop-color="#111827" stop-opacity="0.9"/>
      <stop offset="1" stop-color="#111827" stop-opacity="0.6"/>
    </linearGradient>
  </defs>
  <rect width="1200" height="675" fill="url(#bg)"/>
  <circle cx="980" cy="140" r="180" fill="#111827" opacity="0.05"/>
  <circle cx="980" cy="140" r="110" fill="#111827" opacity="0.06"/>
  <path d="M120 520 C 260 420, 420 620, 560 520 S 860 420, 1040 520" fill="none" stroke="#111827" stroke-opacity="0.08" stroke-width="28" stroke-linecap="round"/>
  <path d="M120 520 C 260 420, 420 620, 560 520 S 860 420, 1040 520" fill="none" stroke="#111827" stroke-opacity="0.12" stroke-width="8" stroke-linecap="round"/>
  <rect x="72" y="72" width="1056" height="531" rx="18" fill="#ffffff" opacity="0.55" stroke="#111827" stroke-opacity="0.08"/>
  <rect x="96" y="112" width="180" height="451" rx="14" fill="#111827" opacity="0.06"/>
  <rect x="304" y="112" width="800" height="64" rx="14" fill="#111827" opacity="0.05"/>
  <rect x="304" y="196" width="800" height="128" rx="14" fill="#111827" opacity="0.04"/>
  <rect x="304" y="344" width="800" height="219" rx="14" fill="#111827" opacity="0.03"/>
  <text x="304" y="110" font-family="ui-serif, STSong, SimSun, serif" font-size="18" fill="#111827" opacity="0.45">占位示意图</text>
  <text x="600" y="275" text-anchor="middle" font-family="ui-serif, STSong, SimSun, serif" font-size="64" fill="url(#ink)">归墟（首页）</text>
  <text x="600" y="330" text-anchor="middle" font-family="ui-sans-serif, system-ui, -apple-system, Segoe UI, Arial" font-size="20" fill="#111827" opacity="0.45">Replace this SVG with a real screenshot</text>
</svg>
